<?xml version="1.0" encoding="UTF-8" standalone="no"?>
<!-- Created with Inkscape (http://www.inkscape.org/) -->

<svg
   width="67.733337mm"
   height="67.758774mm"
   viewBox="0 0 67.733336 67.758773"
   version="1.1"
   id="svg1"
   xml:space="preserve"
   sodipodi:docname="icon.svg"
   inkscape:export-filename="icon.svg"
   inkscape:export-xdpi="9.3752909"
   inkscape:export-ydpi="9.3752909"
   xmlns:inkscape="http://www.inkscape.org/namespaces/inkscape"
   xmlns:sodipodi="http://sodipodi.sourceforge.net/DTD/sodipodi-0.dtd"
   xmlns="http://www.w3.org/2000/svg"
   xmlns:svg="http://www.w3.org/2000/svg"><sodipodi:namedview
     id="namedview1"
     pagecolor="#ffffff"
     bordercolor="#999999"
     borderopacity="1"
     inkscape:showpageshadow="2"
     inkscape:pageopacity="0"
     inkscape:pagecheckerboard="0"
     inkscape:deskcolor="#d1d1d1"
     inkscape:document-units="mm"
     showgrid="false"><inkscape:page
       x="0"
       y="0"
       width="67.73333"
       height="67.758774"
       id="page2"
       margin="0"
       bleed="0" /></sodipodi:namedview><defs
     id="defs1" /><g
     id="layer1"
     transform="matrix(0.50001552,0,0,0.50001552,-11.702605,-10.317653)"><path
       style="fill:#18a058;fill-opacity:1;stroke:none;stroke-opacity:1"
       d="m 35.140288,155.82576 c -0.60482,-0.11966 -1.57072,-0.45787 -2.14645,-0.75159 -1.39072,-0.70949 -3.3241,-2.89617 -3.71538,-4.20214 -0.23494,-0.78418 -0.31453,-8.61733 -0.31453,-30.95604 V 90.00977 l -2.27236,-0.0933 c -3.51702,-0.14444 -3.28389,0.64453 -3.28389,-11.113326 0,-9.2095 0.03,-9.82969 0.52288,-10.79574 0.67255,-1.31831 1.23783,-1.75873 10.72191,-8.35364 4.36562,-3.0357 11.5689,-8.07386 16.00729,-11.1959 4.438385,-3.12204 11.455003,-8.05607 15.592484,-10.964513 4.137482,-2.908443 9.912013,-7.021162 12.832291,-9.139376 9.885235,-7.170213 10.733109,-7.719309 11.919549,-7.719309 1.26254,0 2.4583,0.732411 10.243148,6.273965 4.26424,3.035446 9.52301,6.764875 11.68617,8.287618 11.50467,8.098655 29.44286,20.781475 34.03469,24.063525 1.96453,1.40417 5.20839,3.70948 7.20857,5.12293 2.78605,1.96879 3.76077,2.81313 4.16718,3.60977 0.50299,0.98593 0.53006,1.5447 0.52209,10.77384 -0.006,7.234436 -0.0912,9.841766 -0.33073,10.153776 -0.57979,0.75515 -1.45008,1.0354 -3.21534,1.0354 h -1.73719 l -0.0313,28.90573 c -0.0172,15.89815 -0.0112,29.05798 0.0133,29.24407 0.0246,0.18609 -0.14163,1.06565 -0.36936,1.95457 -0.62368,2.43447 -2.30374,4.4438 -4.54992,5.44164 -0.84773,0.3766 -2.12142,0.46744 -7.69657,0.54891 l -6.68073,0.0976 V 123.18403 90.22005 H 91.141012 48.013928 v 32.94063 32.94062 l -5.88698,-0.029 c -3.23784,-0.0159 -6.38183,-0.12689 -6.98666,-0.24655 z M 92.596222,74.049734 c 1.33201,-0.36798 2.95804,-2.02702 3.18798,-3.25268 l 0.16993,-0.90581 5.729378,-0.0882 c 5.6459,-0.0869 5.7512,-0.0989 7.22706,-0.82368 6.66423,-3.27267 6.35554,-12.53291 -0.5253,-15.75853 -1.20761,-0.5661 -1.89001,-0.7039 -3.48593,-0.7039 -1.0914,0 -2.33772,0.0595 -2.76959,0.13229 -0.75213,0.12672 -0.7938,0.0821 -0.98911,-1.05833 -0.45307,-2.64556 -2.787828,-5.99057 -5.282448,-7.56815 -3.52937,-2.23194 -8.683754,-2.23605 -12.482291,-0.01 -2.371565,1.38983 -4.458469,4.3315 -5.203655,7.335 l -0.300729,1.2121 -1.325084,0.0302 c -1.56714,0.0357 -4.136446,1.15045 -5.587002,2.42406 -0.535821,0.47046 -1.360312,1.63964 -1.832202,2.59818 -2.11417,4.29449 -0.334247,9.11911 4.182448,11.33684 1.53789,0.75512 1.63755,0.76754 7.207031,0.898 l 5.64758,0.13229 0.34914,1.01727 c 0.44719,1.30297 1.31041,2.23316 2.64321,2.84828 1.226894,0.56625 1.970754,0.61053 3.439584,0.20475 z m -7.606779,-7.1353 c -0.691224,-0.59247 -1.25677,-1.23138 -1.25677,-1.4198 0,-0.57692 2.337975,-2.53612 3.855485,-3.23086 1.91527,-0.87684 3.873134,-1.05849 5.696234,-0.5285 1.60333,0.4661 4.00199,2.0319 4.83281,3.15478 l 0.54121,0.73145 -1.31131,1.15527 -1.3113,1.15528 -0.88832,-1.03596 c -1.62403,-1.89392 -3.9242,-2.55971 -5.937334,-1.71857 -0.84753,0.35412 -2.56705,2.07037 -2.56705,2.56216 0,0.45754 -0.37587,0.26997 -1.653655,-0.82525 z m -4.428943,-4.34045 -1.165683,-1.18775 0.779865,-0.82356 c 1.855353,-1.9593 4.973294,-3.75819 7.791326,-4.49517 1.751874,-0.45816 5.172674,-0.393 7.011464,0.13356 2.1334,0.61093 4.85092,2.24999 6.488288,3.91339 l 1.34346,1.36481 -1.19244,1.19244 -1.19243,1.19243 -1.532818,-1.45753 c -4.57418,-4.34952 -10.897974,-4.39511 -15.389479,-0.11094 -0.845359,0.80633 -1.590758,1.46606 -1.656443,1.46606 -0.06569,0 -0.643985,-0.53448 -1.28511,-1.18774 z M 50.924338,131.4942 v -24.6071 l 40.150534,0.067 40.150508,0.067 0.0675,24.5401 0.0675,24.5401 H 91.142382 50.924338 Z m 70.399522,17.4837 0.7734,-0.77339 -0.004,-4.98129 c -0.004,-5.54432 -0.11828,-6.03004 -1.58728,-6.76682 -0.80382,-0.40315 -1.76565,-0.46266 -7.48394,-0.46302 -6.95557,-4.4e-4 -7.74533,0.12283 -8.37954,1.30785 -0.36978,0.69096 -0.35921,10.11803 0.0123,10.93333 0.64879,1.42394 1.10408,1.50207 8.79764,1.5097 l 7.09796,0.007 z m -11.13285,-3.19535 c 0.60919,-0.7276 1.19483,-1.32291 1.30143,-1.32291 0.10661,0 0.47346,0.29765 0.81524,0.66145 0.78325,0.83374 0.98812,0.82773 1.91064,-0.0561 l 0.74897,-0.71756 1.37902,1.37902 1.37903,1.37902 h -4.32097 -4.32097 z m -3.30729,-2.51416 c 0,-1.8189 0.063,-3.307 0.13993,-3.30688 0.077,1.1e-4 0.88076,0.74767 1.7862,1.66124 l 1.64627,1.66103 -1.66103,1.64626 c -0.91356,0.90544 -1.71735,1.64608 -1.7862,1.64585 -0.0688,-2.2e-4 -0.12517,-1.4886 -0.12517,-3.3075 z m 10.73061,1.33871 -1.42215,-1.44004 1.41616,-1.47038 c 0.77889,-0.80871 1.51222,-1.47038 1.62963,-1.47038 0.1174,0 0.21346,1.30969 0.21346,2.91042 0,1.60073 -0.0934,2.91042 -0.20748,2.91042 -0.11411,0 -0.84744,-0.64802 -1.62962,-1.44004 z m -6.30858,-3.64016 c -1.04967,-1.02301 -1.90849,-1.90582 -1.90849,-1.96179 0,-0.056 1.80929,-0.10176 4.02065,-0.10176 h 4.02066 l -0.9118,0.94953 c -0.50149,0.52225 -1.45196,1.40505 -2.11216,1.96179 l -1.20036,1.01224 z m -18.329508,7.73086 c 0.49813,-0.14286 1.00154,-0.41075 1.11868,-0.59531 0.11714,-0.18456 0.21481,-1.78944 0.21704,-3.5664 0.004,-2.98569 -0.0399,-3.27178 -0.57501,-3.77031 -0.57182,-0.53274 -0.82124,-0.53948 -19.976044,-0.53948 -19.044206,0 -19.406608,0.01 -19.926151,0.52917 -0.472719,0.47272 -0.529169,0.88194 -0.529169,3.83646 0,2.95451 0.0564,3.36373 0.529169,3.83646 0.519266,0.51926 0.881945,0.52916 19.382475,0.52916 11.543532,0 19.20447,-0.10071 19.75901,-0.25975 z m 0.8106,-14.02775 c 0.46817,-0.46816 0.52917,-0.88194 0.52917,-3.58927 0,-1.68305 -0.12325,-3.2904 -0.27389,-3.57187 -0.26705,-0.49898 -0.76918,-0.51177 -20.089442,-0.51177 -17.661351,0 -19.860741,0.0452 -20.231315,0.41577 -0.599277,0.59928 -0.602387,6.3438 -0.0039,7.19827 l 0.411878,0.58804 h 19.564162 c 19.211387,0 19.573707,-0.01 20.093327,-0.52917 z m 29.575978,-6.49835 c 1.11045,-0.77779 1.37988,-1.7365 1.386,-4.93174 l 0.006,-2.9897 0.85417,-0.39687 c 0.59953,-0.27857 0.87844,-0.60667 0.93558,-1.10061 0.0749,-0.64735 -0.42022,-1.04475 -6.18075,-4.96093 -3.96382,-2.69473 -6.50493,-4.25721 -6.92362,-4.25721 -0.36679,0 -1.44405,0.56091 -2.41821,1.25912 -0.96621,0.69252 -2.29253,1.6109 -2.94738,2.04084 -3.4273,2.25021 -8.00456,5.56277 -8.126818,5.88137 -0.2278,0.59365 0.737368,1.45463 1.434518,1.27965 l 0.60689,-0.15232 v 3.47109 3.47108 l 0.89958,0.89958 0.89958,0.89959 h 9.49259 c 8.17373,0 9.5745,-0.0574 10.08214,-0.41294 z m -18.406,-5.20946 0.0748,-2.97656 h 8.33439 8.33437 l 0.0748,2.97656 0.0748,2.97656 h -8.48397 -8.484 z m -11.228848,-1.66865 c 0.55787,-0.39074 0.58804,-0.59361 0.58804,-3.95374 0,-3.36014 -0.0302,-3.56301 -0.58804,-3.95375 -0.51926,-0.36371 -2.8609,-0.41188 -20.021358,-0.41188 -17.711608,0 -19.476182,0.0388 -19.917169,0.43788 -0.420907,0.38092 -0.483857,0.87999 -0.483857,3.83646 0,3.0458 0.0549,3.4535 0.529169,3.92774 0.519539,0.51954 0.881945,0.52917 19.91717,0.52917 17.119445,0 19.456815,-0.0482 19.976045,-0.41188 z"
       id="path1" /></g></svg>
